<svg width="48" height="81" viewBox="0 0 48 81" fill="none" xmlns="http://www.w3.org/2000/svg">
<path d="M18.8476 1.43426C19.1625 1.3719 19.4555 1.37804 19.7195 1.43426C26.232 0.285713 32.7251 1.0184 38.2016 5.05196C43.6012 9.02882 46.7286 15.8285 47.1019 22.4151C47.8747 36.0987 33.8609 46.1597 24.4939 53.7035C24.4265 53.7585 24.3544 53.7953 24.2854 53.8405C24.1562 54.0464 23.9791 54.2196 23.7731 54.363C24.1165 55.584 24.5218 56.7882 25.0157 57.9557C25.2938 58.612 25.3414 59.3215 25.0632 59.9074C24.8003 60.6014 24.2014 61.1692 23.2579 61.2225C21.9649 61.2955 20.6753 61.3858 19.3832 61.4802C18.5776 65.0367 15.9778 67.3673 12.9577 69.3232C9.11814 71.8084 6.52636 73.1792 9.33883 77.9096C10.6843 80.1715 7.16405 82.2193 5.82259 79.9648C3.5171 76.0893 2.88054 71.988 6.5346 68.7687C9.33641 66.3009 13.2677 65.0833 14.9134 61.8109C13.759 61.8938 12.6056 61.9725 11.4498 62.0381C11.3488 62.0437 11.2585 62.0324 11.165 62.0258C11.1231 62.0284 11.0855 62.0381 11.0419 62.0381C10.0132 62.0381 8.89809 61.1094 9.00553 60.0017C9.22057 57.7835 9.61446 55.6707 10.4134 53.6255C10.3757 53.5827 10.3371 53.5426 10.3019 53.4958C-1.19261 37.9729 -6.11993 6.38017 18.8476 1.43426ZM20.4441 57.3313C20.1504 56.5134 19.8845 55.6872 19.6656 54.8414C19.6549 54.7978 19.6549 54.7602 19.6467 54.7183C17.8614 54.7314 16.0763 54.7757 14.2919 54.8529C13.8742 55.8077 13.5903 56.8112 13.395 57.835C15.7448 57.6783 18.0936 57.4952 20.4441 57.3313ZM13.3763 50.8155C16.1994 50.667 19.024 50.6398 21.8502 50.6358C29.8825 44.1857 39.6712 37.2092 42.5544 26.8079C44.2466 20.6988 41.5515 14.1022 37.3481 9.67491C32.7964 4.88038 25.8455 4.29294 19.7284 5.56428C19.4659 5.61888 19.2231 5.6163 18.9951 5.58609C-1.77358 10.5302 3.91777 37.4594 13.3763 50.8155Z" fill="#FFF8B8"/>
<path d="M24.9148 7.4536C27.6114 7.1972 27.5873 11.4006 24.9148 11.6542C16.8817 12.4171 12.1701 18.9788 12.5237 26.776C12.646 29.4855 8.44558 29.4734 8.32328 26.776C7.85798 16.5208 14.6732 8.42669 24.9148 7.4536Z" fill="#FFF8B8"/>
</svg>
