<svg width="70" height="121" viewBox="0 0 70 121" fill="none" xmlns="http://www.w3.org/2000/svg">
<path d="M42.7286 1.67991C42.2563 1.58636 41.8167 1.59557 41.4207 1.67991C31.6521 -0.0429113 21.9123 1.05612 13.6976 7.10646C5.59821 13.0717 0.90717 23.2713 0.347114 33.1511C-0.812015 53.6766 20.2086 68.7681 34.2592 80.0838C34.3603 80.1662 34.4683 80.2215 34.5718 80.2893C34.7657 80.5981 35.0313 80.8579 35.3403 81.0731C34.8253 82.9045 34.2173 84.7109 33.4764 86.4621C33.0594 87.4465 32.9879 88.5108 33.4052 89.3896C33.7995 90.4307 34.6978 91.2823 36.1131 91.3623C38.0526 91.4718 39.987 91.6073 41.9253 91.7488C43.1336 97.0835 47.0334 100.58 51.5635 103.513C57.3228 107.241 61.2105 109.297 56.9917 116.393C54.9735 119.786 60.2539 122.857 62.2661 119.476C65.7243 113.662 66.6792 107.511 61.1981 102.682C56.9954 98.9798 51.0984 97.1535 48.6299 92.2449C50.3615 92.3692 52.0916 92.4872 53.8253 92.5856C53.9767 92.5941 54.1122 92.5771 54.2525 92.5672C54.3153 92.5711 54.3718 92.5856 54.4372 92.5856C55.9802 92.5856 57.6529 91.1926 57.4917 89.5311C57.1691 86.2037 56.5783 83.0346 55.3799 79.9668C55.4364 79.9026 55.4943 79.8425 55.5471 79.7722C72.7889 56.4878 80.1799 9.09877 42.7286 1.67991ZM40.3338 85.5254C40.7744 84.2987 41.1733 83.0593 41.5016 81.7907C41.5176 81.7252 41.5176 81.6688 41.53 81.606C44.2079 81.6256 46.8855 81.692 49.5622 81.8079C50.1887 83.2401 50.6145 84.7453 50.9075 86.281C47.3828 86.046 43.8596 85.7714 40.3338 85.5254ZM50.9356 75.7517C46.7009 75.529 42.464 75.4883 38.2247 75.4822C26.1763 65.8071 11.4932 55.3423 7.16835 39.7404C4.63005 30.5767 8.67282 20.6818 14.9779 14.0409C21.8054 6.84909 32.2318 5.96793 41.4074 7.87493C41.8012 7.95685 42.1654 7.95297 42.5074 7.90765C73.6604 15.3238 65.1233 55.7177 50.9356 75.7517Z" fill="#FFD3BD"/>
<path d="M33.6279 10.7089C29.5829 10.3243 29.619 16.6294 33.6279 17.0098C45.6774 18.1542 52.7449 27.9967 52.2144 39.6925C52.0309 43.7568 58.3316 43.7386 58.5151 39.6925C59.213 24.3097 48.9902 12.1685 33.6279 10.7089Z" fill="#FFD3BD"/>
</svg>
