<svg width="89" height="57" viewBox="0 0 89 57" fill="none" xmlns="http://www.w3.org/2000/svg">
<path d="M67.015 14.5752C62.8703 14.5752 58.956 15.9054 55.648 18.4293C53.1007 7.74614 43.0266 0.0684814 31.3957 0.0684814C30.4541 0.0684814 29.5011 0.120401 28.5623 0.222792C21.9024 0.948932 16.6685 4.5762 13.8249 10.4336C10.8362 16.5912 11.1365 24.0375 14.5671 30.0796C6.97486 29.9334 1.12322 34.9126 0.122291 42.3974C-0.341542 45.8651 0.515391 48.8728 2.67048 51.3336C6.27965 55.4572 12.5852 56.9271 17.2823 56.9271C18.3635 56.9271 19.4209 56.8536 20.3556 56.7176C20.4452 56.7288 20.5353 56.7397 20.6331 56.7397C36.493 56.7397 54.4685 56.7397 72.1895 56.4953C72.3623 56.4935 72.5377 56.4723 72.7195 56.4301C72.9705 56.4649 73.2302 56.4678 73.515 56.4189C79.3986 55.3966 84.0939 52.0859 86.7347 47.0941C89.7111 41.4703 89.7562 34.2904 86.857 27.8905C83.2489 19.9266 75.2751 14.5752 67.015 14.5752ZM19.7228 35.6666C20.8321 35.8431 22.0107 35.132 22.4396 34.0498C22.7855 33.1797 22.5655 32.2567 21.8508 31.5814C16.8894 26.8968 15.2142 20.2575 17.4791 14.2563C19.6062 8.62008 24.6651 5.12144 31.0117 4.89784C42.165 4.51198 51.4133 13.1325 51.4353 23.7786C51.4391 25.326 52.6552 26.1348 53.8558 26.1348C54.9372 26.1348 55.8226 25.5368 56.144 24.6008C59.1756 21.2152 62.997 19.4272 67.2024 19.4272C73.7713 19.4272 80.02 23.9059 82.7498 30.5718C84.792 35.5562 84.6864 40.7512 82.4597 44.8222C80.4681 48.4627 77.0436 50.831 72.5515 51.6724C72.4404 51.6578 72.3226 51.6474 72.1803 51.6474C72.1794 51.6474 72.1785 51.6474 72.1774 51.6474C54.4656 51.8927 36.4919 51.8927 20.6339 51.8927C20.4631 51.8927 20.2954 51.9092 20.1241 51.9441C19.9417 51.9329 19.7525 51.9367 19.5514 51.968C18.6175 52.1178 17.6503 52.194 16.6757 52.194C11.2829 52.194 4.96829 49.8359 4.92072 43.1915C4.90552 41.0493 5.64776 39.1607 7.06712 37.7305C8.81011 35.9768 11.4732 34.9681 14.3734 34.9681C15.4648 34.9681 16.5312 35.1123 17.5444 35.3999C17.7204 35.4493 17.9019 35.477 18.0965 35.4862C18.5839 35.7263 19.1286 35.8026 19.7228 35.6666Z" fill="#FFF8B8" fill-opacity="0.5"/>
</svg>
