<svg width="90" height="86" viewBox="0 0 90 86" fill="none" xmlns="http://www.w3.org/2000/svg">
<path d="M88.6166 68.3112C88.3421 68.191 88.0434 68.1218 87.7297 68.1218H85.2893C85.051 68.1218 84.8254 68.1707 84.6096 68.2409C84.3654 68.1608 84.0988 68.1082 83.7882 68.1218C78.0368 68.3776 72.2845 68.6374 66.5309 68.8757C68.3416 67.8856 70.0722 66.7447 71.6895 65.4225C72.8254 64.4947 73.8147 63.4633 74.679 62.3549C92.1294 65.6548 93.8825 37.7634 78.7173 36.4473C78.2965 34.3198 77.7584 32.2678 77.1381 30.3596C76.7786 29.2516 75.8578 28.7896 74.9446 28.8036C74.724 28.7398 74.4876 28.6977 74.2161 28.7055C51.0749 29.4404 27.9228 29.6327 4.77026 29.4566C4.01634 29.4506 3.46205 29.7526 3.1001 30.1997C2.58889 30.5586 2.20789 31.1198 2.14288 31.8966C1.1649 43.6163 1.2728 56.5449 10.1485 65.4C11.9167 67.1648 14.0027 68.572 16.2778 69.7197C13.556 69.661 10.8336 69.575 8.11117 69.4687C8.00136 69.4541 7.89442 69.4354 7.77422 69.4354H2.70525C2.35791 69.4354 2.05518 69.5029 1.79112 69.616C0.594652 69.8308 -0.396217 70.8307 0.157685 72.2861C2.50196 78.4476 9.26879 80.9175 15.15 82.5075C24.9558 85.1579 35.4957 85.5018 45.5911 85.4295C55.1142 85.3612 64.777 84.6569 74.1176 82.7348C81.0048 81.3168 88.5492 78.5382 89.86 71.064C89.9323 70.8452 89.9821 70.6157 89.9821 70.3736C90.1186 69.2117 89.4641 68.532 88.6166 68.3112ZM79.4264 41.1966C86.9777 43.4207 86.6331 58.172 77.2466 58.0956C79.5435 53.0141 80.0095 46.9972 79.4264 41.1966ZM13.3329 62.2162C5.61842 55.4852 5.75998 43.5557 6.48216 33.969C28.7586 34.1209 51.0357 33.9289 73.3019 33.2356C76.2747 43.5441 76.5228 56.3358 67.199 63.2584C61.8148 67.2548 54.9218 68.9171 48.1352 69.5235C44.5164 69.6239 40.8958 69.706 37.2766 69.7599C28.9077 69.411 19.5873 67.6725 13.3329 62.2162ZM69.4677 79.0425C61.6079 80.398 53.5555 80.8162 45.5901 80.9254C37.1574 81.0406 28.6423 80.6119 20.3412 79.0639C16.4191 78.3334 10.0006 77.1477 6.51024 73.9405H7.02145C17.2571 74.3642 27.4906 74.4111 37.7238 74.2549C39.2195 74.3117 40.6806 74.3349 42.0767 74.337C44.274 74.337 46.4993 74.2305 48.7222 74.0118C60.4135 73.6797 72.1028 73.1496 83.787 72.628C84.0519 72.6163 84.2823 72.5557 84.4971 72.4747C84.5723 72.503 84.6494 72.5265 84.7285 72.548C82.1846 77.0129 73.9212 78.2738 69.4677 79.0425Z" fill="white"/>
<path d="M61.7317 61.8324C68.3718 56.1377 70.8419 48.2846 69.4433 39.7453C68.9736 36.8843 64.6334 38.1021 65.0994 40.9422C66.2449 47.934 63.8941 54.0614 58.546 58.6466C56.3368 60.5413 59.5394 63.7112 61.7317 61.8324Z" fill="white"/>
<path d="M23.1563 13.8161C24.0124 15.3045 24.8215 16.7093 25.1419 18.2354C25.4417 19.6665 24.6869 21.094 22.8326 22.6008C22.1355 23.1669 21.8747 24.0648 22.1676 24.8889C22.4797 25.7662 23.3517 26.3789 24.2887 26.3789C24.7946 26.3789 25.2746 26.207 25.6754 25.8812C27.973 24.0139 29.2167 22.0498 29.4779 19.8784C29.7626 17.5105 28.9169 15.4245 28.0514 13.6974C27.7002 12.9962 27.2937 12.289 26.9005 11.6049C25.0102 8.31997 23.9795 6.16264 25.6025 3.91453C26.0743 3.26062 26.1445 2.45631 25.7895 1.76258C25.4164 1.03347 24.6313 0.563232 23.7893 0.563232C23.0773 0.563232 22.428 0.897305 22.0079 1.47929C18.7176 6.03878 21.4171 10.771 22.8684 13.3132L23.1563 13.8161Z" fill="white"/>
<path d="M34.4184 13.8161C35.2744 15.3045 36.0836 16.7093 36.4034 18.2354C36.7038 19.6665 35.9484 21.094 34.0941 22.6008C33.3973 23.1669 33.1361 24.0648 33.4291 24.8889C33.741 25.7662 34.6132 26.3789 35.5502 26.3789C36.0576 26.3789 36.5367 26.207 36.9375 25.8812C39.2345 24.0139 40.4788 22.0498 40.7396 19.8784C41.0248 17.5105 40.1786 15.4245 39.3137 13.6974C38.9625 12.9962 38.5554 12.289 38.1628 11.6049C36.2724 8.31997 35.2412 6.16264 36.8644 3.91453C37.3368 3.26062 37.4064 2.45631 37.0515 1.76258C36.6786 1.03347 35.8937 0.563232 35.0504 0.563232C34.3384 0.563232 33.6895 0.897305 33.2694 1.47929C29.9793 6.03878 32.678 10.771 34.1293 13.3132L34.4184 13.8161Z" fill="white"/>
<path d="M45.679 13.815C46.5356 15.3034 47.3441 16.7093 47.6645 18.2352C47.9644 19.6663 47.2095 21.0938 45.3553 22.6006C44.6579 23.1667 44.3973 24.0646 44.6902 24.8888C45.0024 25.766 45.8744 26.3787 46.8131 26.3787C47.3199 26.3787 47.7984 26.2068 48.1998 25.881C50.4967 24.0137 51.7411 22.0496 52.0019 19.8783C52.2871 17.5103 51.4415 15.4253 50.576 13.6972C50.2256 12.996 49.8184 12.2888 49.4247 11.6047C47.5349 8.31882 46.5037 6.16245 48.1267 3.91319C48.5985 3.25928 48.6677 2.45496 48.3133 1.76124C47.9403 1.03213 47.1553 0.56189 46.3133 0.56189C45.6009 0.56189 44.9514 0.895962 44.5313 1.47814C41.2412 6.03744 43.9405 10.7698 45.3918 13.3118L45.679 13.815Z" fill="white"/>
</svg>
