<svg width="112" height="161" viewBox="0 0 112 161" fill="none" xmlns="http://www.w3.org/2000/svg">
<path d="M88.7376 83.4229C88.6235 83.3624 88.5054 83.3071 88.3829 83.2562C88.8206 70.8479 88.3372 59.769 86.9097 49.4128C84.9254 35.0379 80.5201 14.4507 65.2192 1.69913C64.6164 1.19704 63.9207 0.942932 63.1545 0.942932C54.7787 0.942932 39.5791 34.6198 39.4386 34.9588C33.315 49.8277 29.8035 64.1511 28.7057 78.746C28.6208 79.8487 28.5623 80.9519 28.513 82.0574C28.3088 82.1163 28.1129 82.1896 27.9219 82.2794C11.2764 90.1341 1.41108 108.112 0.84787 131.624L0.609206 132.17C0.155035 133.295 0.233516 134.405 0.83629 135.298C1.50436 136.291 2.76877 136.908 4.13257 136.908C5.68903 136.908 7.03193 136.122 7.74052 134.801C8.05413 134.391 8.27125 133.918 8.39058 133.387C12.7892 123.328 21.4637 115.191 32.8383 110.442C33.0129 110.473 33.2088 110.494 33.4263 110.494C34.8505 110.492 36.2732 110.476 37.6955 110.461L38.7132 110.451V119.355C38.7132 119.644 38.746 119.928 38.8113 120.222C38.6872 122.094 39.757 123.619 41.5698 124.135C42.0713 124.277 42.5759 124.4 43.0777 124.521L43.1282 124.534C42.3752 136.108 48.5477 144.255 55.0775 152.869C56.541 154.8 58.0518 156.796 59.5726 158.938C60.1702 160.157 61.5475 160.942 63.1024 160.942C64.8123 160.942 66.253 159.966 66.8654 158.393C68.1459 155.095 69.6718 152.003 71.1498 149.007C74.7249 141.77 78.1077 134.918 77.7008 126.131C79.3277 125.886 81.0151 124.702 81.2191 122.493C81.6028 118.348 81.7057 114.263 81.7234 109.494L82.4539 109.471C82.5484 109.468 82.6382 109.455 82.7527 109.435C95.9175 111.441 101.979 122.913 103.261 133.007C103.562 135.361 105.597 136.591 107.455 136.591C109.185 136.591 110.538 135.59 110.867 134.082C111.099 133.634 111.246 133.143 111.302 132.619C113.625 110.634 105.19 92.2448 88.7376 83.4229ZM10.4681 116.73C12.7107 107.858 17.6464 97.2149 28.4429 90.7369C28.5558 94.928 28.8807 99.2564 29.4082 103.631C21.8899 106.924 15.5348 111.321 10.4681 116.73ZM63.7769 146.979C63.2873 147.956 62.7952 148.936 62.3102 149.931C61.9866 149.522 61.6633 149.114 61.3369 148.704C55.9174 141.897 50.3216 134.863 50.6252 126.155C51.5596 126.309 52.5378 126.45 53.5883 126.584C54.4703 130.913 56.3275 134.978 59.2461 138.985C59.8357 140.535 61.3661 141.647 62.939 141.647C63.9011 141.647 64.7991 141.247 65.536 140.492C66.4016 139.608 67.2266 138.676 68.0249 137.686C66.8721 140.812 65.3546 143.837 63.7769 146.979ZM61.6846 127.224C63.0648 127.255 64.4434 127.249 65.8284 127.209C65.0397 128.643 64.2118 129.96 63.3247 131.188C62.663 129.917 62.1143 128.591 61.6846 127.224ZM73.6699 118.873C64.8072 120.093 55.633 119.572 46.5091 117.347V110.386C55.7408 110.245 65.1095 109.991 73.9214 109.726C73.9086 112.346 73.861 115.573 73.6699 118.873ZM79.3213 102.06C78.2126 102.319 73.492 102.842 53.5474 102.842C45.9671 102.842 39.2231 102.759 37.1275 102.706C33.4018 69.9302 42.07 38.8028 62.9014 10.1656C74.7677 22.2693 78.1193 40.1422 79.705 54.4447C81.2358 68.2355 81.1132 83.3839 79.3213 102.06ZM87.0699 102.634C87.4195 99.0017 87.7119 95.4117 87.9422 91.9328C95.0635 96.6726 99.8655 103.469 102.257 112.189C98.2437 107.538 93.0642 104.271 87.0699 102.634Z" fill="#B3D0FD"/>
<path d="M72.4219 49.3124C69.8886 45.9657 66.3199 44.1223 62.3771 44.1223C56.4809 44.1223 50.6333 48.2301 47.4779 54.5846C45.8658 57.8327 44.9854 61.6593 44.8597 65.9592C44.7191 70.8582 46.7609 76.0915 50.1859 79.6171C52.8398 82.3495 56.0219 83.7934 59.3883 83.7934C60.7225 83.7934 62.0831 83.5596 63.426 83.1009C67.5647 81.685 71.1417 78.1838 73.4953 73.2413C76.4226 67.1001 77.0202 59.6152 75.0208 54.1764C74.3396 52.3302 73.466 50.6926 72.4219 49.3124ZM67.4489 66.8193C66.673 70.3529 63.6856 73.7299 60.499 74.6717C57.7177 75.4916 55.3033 74.2652 53.7893 71.2008C52.0498 67.6784 52.7816 62.064 54.3545 58.5686C55.3622 56.3244 58.9833 52.2028 61.8743 52.2028C62.2124 52.2028 62.5376 52.2617 62.8396 52.3768C67.4601 54.1414 68.4971 62.0353 67.4489 66.8193Z" fill="#B3D0FD"/>
</svg>
