<svg width="136" height="178" viewBox="0 0 136 178" fill="none" xmlns="http://www.w3.org/2000/svg">
<path d="M147.446 54.2203C141.781 43.5791 132.322 36.5159 121.868 30.9734C96.2663 10.3945 62.7921 19.6029 41.1154 41.9185C17.7514 65.9703 11.1834 100.35 30.8329 128.556C50.8943 157.35 91.0889 164.208 121.211 148.12C154.13 130.535 164.653 86.5516 147.446 54.2203ZM57.076 139.51C42.5299 131.379 31.2499 116.145 28.6616 99.632C26.3483 84.8674 32.2413 69.7712 40.4561 57.7904C53.0847 39.3717 74.6842 26.6857 95.3754 29.6394C95.4034 29.6518 95.4238 29.6691 95.4526 29.6802C102.213 32.5221 109.429 35.3205 116.194 38.8082C116.782 39.2755 117.371 39.7419 117.948 40.2472C118.905 41.0825 119.898 41.406 120.843 41.3867C127.963 45.6075 134.294 50.8542 138.615 58.1317C148.173 74.2304 147.893 96.5002 140.913 113.406C127.761 145.274 85.8616 155.599 57.076 139.51Z" fill="#FFF8B8"/>
<path d="M72.8748 76.0732C79.256 78.5359 83.0752 68.6395 76.694 66.1768C70.3137 63.7142 66.4944 73.6109 72.8748 76.0732Z" fill="#FFF8B8"/>
<path d="M106.826 89.7432C113.207 92.2056 117.026 82.3097 110.645 79.8474C104.263 77.3845 100.444 87.2804 106.826 89.7432Z" fill="#FFF8B8"/>
<path d="M102.786 107.474C86.3845 114.679 71.5438 107.601 63.9572 91.9197C60.9826 85.7709 51.2742 90.0478 54.2586 96.2177C64.3531 117.086 85.3356 126.725 107.082 117.171C113.352 114.417 109.052 104.72 102.786 107.474Z" fill="#FFF8B8"/>
</svg>
