<svg width="62" height="62" viewBox="0 0 62 62" fill="none" xmlns="http://www.w3.org/2000/svg">
<path d="M49.4329 17.45C47.6775 22.1873 45.6193 26.792 43.0351 31.1369C46.4799 34.7574 50.0187 38.2824 53.64 41.7271C54.3034 42.3583 54.056 43.1562 53.4956 43.5944C53.2816 43.9434 52.8974 44.1689 52.3445 44.0878C47.3125 43.3475 42.2548 42.8025 37.2113 42.1431C34.8652 46.8427 32.6618 51.6111 30.0082 56.15C29.4207 57.1562 28.2108 56.8243 27.7475 56.0485C27.6143 55.8961 27.5075 55.7062 27.451 55.4656C26.3186 50.6944 25.4007 45.8925 25.2602 40.9903C19.888 40.481 14.7931 38.6096 9.50538 37.5963C8.51354 37.4065 8.39522 36.4563 8.80114 35.766C8.86641 35.4228 9.07505 35.1025 9.48098 34.8942L22.1895 28.3732C21.6961 23.229 21.2451 18.0817 20.3731 12.9839C20.1132 11.4662 22.1841 10.8685 22.8264 11.9877C26.9735 15.1962 30.9896 18.5499 34.3824 22.5588C38.8898 20.2097 43.3132 17.7016 47.8287 15.3673C49.2008 14.658 50.3166 16.4917 49.4329 17.45ZM35.0216 25.2437C34.917 25.2978 34.8142 25.3343 34.7136 25.3603C34.2263 25.7066 33.559 25.7473 33.0704 25.1421C30.2625 21.6671 26.9797 18.7092 23.522 15.9272C24.1072 20.1815 24.4783 24.4613 24.8939 28.7372C24.8954 28.7508 24.8928 28.7627 24.8933 28.7764C25.0691 29.3299 24.9241 29.9745 24.256 30.3172L13.6055 35.7823C17.8615 36.829 22.0551 38.1412 26.4596 38.4041C26.7861 38.4236 27.0448 38.5367 27.2394 38.7049C27.6183 38.9221 27.9012 39.3121 27.9009 39.8701C27.9009 43.9173 28.526 47.8862 29.3685 51.8236C31.4197 48.0163 33.2534 44.0978 35.1941 40.2309C35.2496 40.1208 35.3138 40.0303 35.3826 39.9493C35.5882 39.5609 35.9844 39.2956 36.5714 39.3741C40.6996 39.9245 44.8386 40.3879 48.9667 40.9329C46.1075 38.1495 43.3009 35.3147 40.558 32.416C40.1199 31.953 40.1139 31.4161 40.3377 30.9848C40.302 30.7171 40.3507 30.4268 40.5279 30.1336C42.5931 26.722 44.3029 23.1463 45.7919 19.4647C42.2006 21.389 38.6407 23.3725 35.0216 25.2437Z" fill="#FFF8B8" fill-opacity="1"/>
</svg>
