<svg width="96" height="93" viewBox="0 0 96 93" fill="none" xmlns="http://www.w3.org/2000/svg">
<path d="M86.8002 48.573C79.1934 52.9698 71.328 56.8532 63.0465 59.8049C63.643 68.4757 64.4714 77.1228 65.4993 85.7539C65.6875 87.3353 64.4709 88.1295 63.2342 88.0946C62.5604 88.3245 61.7956 88.2002 61.1452 87.4781C55.2273 80.9037 49.0585 74.5623 43.0357 68.0834C34.6794 71.7745 26.438 75.716 17.8483 78.8505C15.9451 79.5462 14.6929 77.7593 14.9331 76.2063C14.9239 75.8544 14.9917 75.4816 15.1829 75.0966C18.9599 67.4505 23.0583 60.001 28.3091 53.2799C21.6795 46.6374 16.9324 38.4783 10.9751 31.2546C9.85731 29.9 10.753 28.4962 12.0626 28.022C12.5308 27.6348 13.1655 27.4374 13.9403 27.6088L38.1953 32.9754C43.2419 25.5388 48.3489 18.1448 52.8371 10.3501C54.1728 8.02909 57.6093 9.52627 57.2277 11.7378C59.2221 20.636 60.8797 29.5833 60.9757 38.7165C69.6185 40.5714 78.3253 42.1201 86.9625 44.0038C89.5871 44.5764 89.047 48.27 86.8002 48.573ZM58.8528 43.0214C58.6527 42.9779 58.4745 42.9127 58.3109 42.836C57.2741 42.759 56.3352 42.0732 56.3523 40.7206C56.4475 32.9513 55.3327 25.3476 53.7886 17.7857C49.8521 24.1324 45.6008 30.276 41.4133 36.4635C41.4002 36.4834 41.3834 36.4964 41.369 36.5153C40.9903 37.4517 40.0809 38.154 38.806 37.8719L18.4788 33.3744C23.0173 39.498 27.1778 45.9082 32.7848 51.1471C33.2003 51.5355 33.4214 51.9738 33.4953 52.4151C33.7618 53.1264 33.708 53.9625 33.0884 54.7095C28.5982 60.1297 25.0317 66.1387 21.7917 72.3466C28.7629 69.5234 35.5663 66.3101 42.4557 63.2845C42.6521 63.1987 42.8385 63.1486 43.0206 63.1165C43.7268 62.8245 44.5517 62.9088 45.2509 63.6651C50.1689 68.9826 55.1979 74.1954 60.1218 79.5054C59.3808 72.6054 58.7672 65.6949 58.3098 58.7696C58.2368 57.6635 58.8245 56.9378 59.6026 56.6085C59.8519 56.2104 60.2393 55.8755 60.8018 55.6794C67.3529 53.4019 73.6099 50.5101 79.6887 47.2315C72.744 45.8241 65.7758 44.5309 58.8528 43.0214Z" fill="#B3D0FD" fill-opacity="1"/>
</svg>
