<svg width="203" height="207" viewBox="0 0 203 207" fill="none" xmlns="http://www.w3.org/2000/svg">
<path d="M163.756 98.2715C156.844 58.6399 116.917 39.9132 80.2388 49.9261C77.2868 50.7307 75.9176 52.9581 75.7757 55.3056C53.184 67.6952 40.3424 93.5155 44.7183 120.033C50.2276 153.416 86.3468 169.743 116.705 162.415C144.516 155.698 168.924 127.921 163.756 98.2715ZM115.862 149.51C91.3122 157.709 64.8142 144.468 57.5357 119.47C49.9412 93.3989 70.1485 67.1323 94.9673 61.478C96.2165 61.1942 97.1574 60.6309 97.8738 59.9287C122.455 58.9044 144.878 72.6374 151.104 98.9552C156.648 122.385 136.26 142.697 115.862 149.51Z" fill="#FFF8B8"/>
<path d="M107.818 25.0639V6.11097C107.818 -2.0374 95.1836 -2.0374 95.1836 6.11097V25.0635C95.1836 33.2118 107.818 33.2118 107.818 25.0639Z" fill="#FFF8B8"/>
<path d="M163.454 47.2187C167.507 42.4868 171.527 37.7291 175.182 32.6739C177.202 29.8766 175.669 25.6436 172.914 24.031C169.725 22.1639 166.284 23.5124 164.273 26.2985C161.253 30.4769 157.872 34.3746 154.521 38.2856C152.283 40.8971 151.946 44.6442 154.521 47.2183C156.814 49.5129 161.212 49.8371 163.454 47.2187Z" fill="#FFF8B8"/>
<path d="M196.258 101.502H181.095C172.948 101.502 172.948 114.136 181.095 114.136H196.258C204.405 114.138 204.405 101.502 196.258 101.502Z" fill="#FFF8B8"/>
<path d="M169.771 162.736C164.042 156.929 155.111 165.867 160.839 171.669C165.887 176.787 170.324 182.425 174.735 188.094C176.853 190.817 181.461 190.301 183.668 188.094C186.325 185.436 185.779 181.875 183.668 179.161C179.259 173.49 174.822 167.854 169.771 162.736Z" fill="#FFF8B8"/>
<path d="M95.8146 182.364C95.8124 188.479 95.8038 194.593 95.1837 200.683C94.832 204.116 98.3237 207 101.501 207C105.208 207 107.468 204.106 107.818 200.683C108.438 194.593 108.447 188.479 108.449 182.364C108.449 174.215 95.8167 174.215 95.8146 182.364Z" fill="#FFF8B8"/>
<path d="M47.7602 166.527C44.0698 170.828 40.3816 175.132 36.3902 179.159C30.6516 184.95 39.5826 193.885 45.3233 188.092C49.3151 184.066 53.0051 179.762 56.6933 175.46C58.9316 172.848 59.2657 169.097 56.6933 166.527C54.3983 164.232 50.0027 163.911 47.7602 166.527Z" fill="#FFF8B8"/>
<path d="M26.9568 102.765H6.74302C-1.4062 102.765 -1.4062 115.399 6.74302 115.399H26.9589C35.1038 115.402 35.1038 102.765 26.9568 102.765Z" fill="#FFF8B8"/>
<path d="M40.194 60.8421C47.4372 64.529 53.8328 53.6285 46.5703 49.933C40.9238 47.057 35.5998 43.6896 30.7939 39.549C24.6537 34.2611 15.6767 43.1585 21.8608 48.4817C27.4854 53.3297 33.5752 57.4729 40.194 60.8421Z" fill="#FFF8B8"/>
</svg>
