<svg width="110" height="141" viewBox="0 0 110 141" fill="none" xmlns="http://www.w3.org/2000/svg">
<path d="M87.5904 10.7473C87.1939 10.778 86.8468 10.8819 86.5287 11.0177C85.7423 8.13144 84.6564 5.33006 83.2051 2.65571C82.4131 1.1991 81.076 0.806209 79.8414 1.08078C79.5974 1.02795 79.3375 0.997314 79.0564 0.997314H30.9053C30.6248 0.997314 30.3651 1.02795 30.1209 1.08078C28.8871 0.805928 27.5486 1.1991 26.7566 2.65571C25.3067 5.32557 24.2242 8.12273 23.4364 11.0048C23.1267 10.8758 22.7923 10.778 22.4089 10.7487C14.5677 10.1409 3.55502 10.2578 0.689284 19.3257C-1.75237 27.0506 4.08084 36.5479 7.69497 42.9207C13.0715 52.3987 19.4935 61.2519 24.6305 70.8704C27.6953 76.6095 31.9215 84.8737 22.4092 85.2421C18.3977 85.3992 18.3834 91.6385 22.4092 91.4828C33.2924 91.0604 35.3144 85.1378 33.7612 77.9551C37.0198 85.7401 40.9565 93.2109 45.6653 99.924C47.0767 102.701 48.6159 105.393 50.6338 107.767C48.397 112.121 46.8086 116.761 45.9064 121.656L45.7673 121.653C38.5034 121.653 30.6442 124.255 30.371 131.557C30.314 133.074 30.8735 134.453 32.035 135.658C37.1207 140.936 52.3742 140.997 53.022 140.997C53.8112 140.997 54.4876 140.975 55.0286 140.936C55.1655 140.925 55.3004 140.907 55.4288 140.884C55.5601 140.91 55.6967 140.926 55.8349 140.936C56.3658 140.975 57.0453 140.997 57.8328 140.997C58.4823 140.997 73.7333 140.936 78.8167 135.658C79.9771 134.454 80.5378 133.074 80.4824 131.557C80.2081 124.255 72.3506 121.653 65.0855 121.653L64.5032 121.659C64.3947 121.662 64.2964 121.686 64.1921 121.696C63.657 116.304 62.0658 111.28 59.5055 106.68C61.1311 104.267 62.8193 101.896 64.6718 99.65C65.0358 99.2105 65.2924 98.7153 65.4523 98.203C69.7333 91.8153 73.3255 84.784 76.3509 77.5015C74.6141 84.8852 76.4838 91.0517 87.5921 91.4828C91.618 91.6385 91.6025 85.3978 87.5921 85.2421C78.079 84.8737 82.3075 76.6081 85.3702 70.8704C90.5062 61.2517 96.9298 52.3987 102.306 42.9207C105.92 36.5479 111.753 27.052 109.311 19.3257C106.445 10.2564 95.4322 10.1394 87.5904 10.7473ZM22.4705 55.0017C16.9818 46.2758 10.5065 37.4307 7.33806 27.5207C3.89816 16.7567 13.8986 16.3473 22.2305 16.9774C20.7143 28.0452 22.7507 39.9016 25.1041 50.4236C26.3926 56.1899 28.0089 62.0574 29.9613 67.8569C27.471 62.8522 24.4448 58.1406 22.4705 55.0017ZM63.4597 128.851C63.8062 128.948 64.1688 129.017 64.5628 129.017H64.5645L65.0141 129.014C68.723 129.014 71.7798 129.696 72.7972 130.752C73.0383 131.002 73.137 131.243 73.1325 131.517C72.8101 132.216 68.9683 133.659 59.1557 133.659C57.7187 133.659 56.5569 133.622 56.0418 133.584C55.8251 133.566 55.6202 133.569 55.4274 133.589C55.2313 133.57 55.0314 133.566 54.8089 133.584C54.2965 133.621 53.1356 133.659 51.6978 133.659C41.8851 133.659 38.0447 132.216 37.73 131.557C37.7184 131.243 37.8165 131.002 38.0576 130.752C39.0239 129.751 41.8294 129.093 45.2809 129.025C46.2035 132.095 51.6042 131.691 51.8383 127.841C52.1522 122.708 53.3404 117.846 55.3116 113.319C56.9807 117.375 57.7898 121.784 57.6971 126.585C57.6327 129.924 61.6057 130.666 63.4597 128.851ZM59.3181 95.3285C58.8212 95.4713 58.369 95.7225 57.9922 96.0606C57.0574 96.2292 56.1255 96.3647 55.1899 96.4445C55.1885 96.4445 55.1871 96.4445 55.1857 96.4445C54.8667 96.4414 54.5891 96.4147 54.3002 96.3931C54.0383 96.3658 53.7772 96.3389 53.5152 96.3032C52.5184 96.1449 51.63 95.7849 50.6717 95.1343C50.5006 94.8932 50.3193 94.6776 50.1158 94.5093C42.244 82.5886 37.0892 68.8214 33.2213 55.177C29.1676 40.8801 25.0788 21.9326 31.7442 7.69583H78.2184C84.8843 21.9326 80.7955 40.8815 76.7413 55.177C72.7829 69.1314 67.4982 83.224 59.3181 95.3285ZM102.664 27.5193C99.4954 37.4307 93.0206 46.2758 87.5306 55.0003C85.511 58.2106 82.3915 63.0697 79.8726 68.2017C81.882 62.2892 83.546 56.3054 84.8618 50.4213C87.2121 39.8999 89.2499 28.0452 87.7346 16.9774C96.0744 16.3442 106.108 16.7404 102.664 27.5193Z" fill="#FFF8B8"/>
<path d="M75.7311 13.4288C75.3916 11.3438 73.5705 10.8337 72.0094 11.3803C71.6513 11.2297 71.2419 11.1392 70.7722 11.1392H61.8015C57.7771 11.1392 57.7771 17.3793 61.8015 17.3793H70.0272C71.3329 27.2198 70.7354 36.9235 68.1535 46.5813C67.1131 50.4745 73.1327 52.1242 74.1717 48.2403C77.251 36.7169 77.6447 25.1868 75.7311 13.4288Z" fill="#FFF8B8"/>
</svg>
